<svg xmlns="http://www.w3.org/2000/svg" viewBox="0 0 25.77 25.77"><g fill="#030104"><path d="M.028 21.073l.151 3.896s0 .281.359.281c.231 0 1.156.032 1.156.032s.201-.028.201-.144l.003-1.06s-.017-.3.5-.266c.469.031.516.344.516.344s.025.653.025.797-.058.344.229.344l2.415-.002s.258-.057.258-.229v-2.082s-.086-.315.172-.229 4.697.984 4.697.984.231-.006.25.215c.018.208-.016.678-.016.678s.053.138.25.182c.281.063 1.281.172 1.281.172s.317-.026.317-.141c0-.115.086-.487.086-.487s-.018-.135.269-.106.575-.005.575-.005.23.058.23.173c0 .114.086.545.086.545s0 .266.306.245c.118-.008 1.319.058 1.319.058s.156-.016.172-.219c.012-.156 0-.47 0-.47s.041-.249.188-.249c.281 0 1.494-.021 1.641-.005s.281.141.281.141l.055.677s.096.112.211.141c.115.029 1.266-.094 1.266-.094s.176-.303.146-.359c-.027-.058.259-.66.259-.66s.028-.058.173-.086c.143-.028.865-.201.865-.201s.172.03.229.087c.059.058.345.517.345.517s0 .143.114.114c.115-.028 1.147-.201 1.147-.201l.173-.229.057-.602s.028-.315.115-.315c.086 0 .773-.287.773-.287l.287.028.315.517s.114.058.2.028c.086-.028 1.004-.459 1.004-.459s.115-.258.086-.344c-.028-.086-.243-1.49-.243-1.49s-.2-.171-.287-.057c-.086.114-2.997 1.649-6.079 1.979-3.029.325-5.32.846-11.557-1.047-1.554-.471-6.367-.817-7.212-1.262-.341-.184-.402.024-.359.212z"/><path d="M24.675 17.756c-.602-.832-1.729-1.309-2.638-1.276-1.606.058-1.588.795-2.724.444-.701-.216-1.021-.44-1.021-.44s-.273 2.481-2.098 3.141c.491-.872.447-1.825.563-2.734.172-1.359.156-2.297-1.297-2.563-1.011-.185-1.73-.263-2.766-.953s-1.488-1.683-1.755-3.862c-.315-2.581-.057-7.055-.146-7.708C10.705 1.151 9.61.473 8.329.473s-2.316.789-3.45 1.036c-1.133.246-1.051-.024-2.26.223-.69.141-.674.705-.674 2.561 0 .799.048 5.05-.012 6.006-.035.546-.153 1.575-.332 2.124 0 0 4.406 1.906 5.953 5.563-2.531-3.094-6.156-4.125-6.531-4.141A9.634 9.634 0 000 18.111c0 1.102.246 1.577.246 1.577s.591.329 2.835.664c.999.149 3.152.29 4.647.743 4.677 1.413 7.534 1.362 11.198 1.008 4.088-.396 6.332-2.028 6.332-2.028s.044-1.454-.583-2.319zM8.986 2.168a.647.647 0 110 1.293.647.647 0 010-1.293zm-.043 2.835a.647.647 0 110 1.293.647.647 0 010-1.293zm-.561 3.309a.647.647 0 111.293.001.647.647 0 01-1.293-.001zm1.032 3.596a.647.647 0 110-1.293.647.647 0 010 1.293zm1.29 2.335a.647.647 0 110-1.293.647.647 0 010 1.293zm2.022 1.462a.647.647 0 110-1.293.647.647 0 010 1.293zm2.531.814a.646.646 0 110-1.291.646.646 0 010 1.291z"/></g></svg>